<?xml version="1.0" standalone="no"?>
<!DOCTYPE svg PUBLIC "-//W3C//DTD SVG 20010904//EN"
 "http://www.w3.org/TR/2001/REC-SVG-20010904/DTD/svg10.dtd">
<svg version="1.0" xmlns="http://www.w3.org/2000/svg"
 width="512.000000pt" height="512.000000pt" viewBox="0 0 512.000000 512.000000"
 preserveAspectRatio="xMidYMid meet">

<g transform="translate(0.000000,512.000000) scale(0.100000,-0.100000)"
fill="#fff" stroke="none">
<path d="M2962 3428 c-12 -15 -32 -117 -32 -164 0 -56 70 -72 89 -21 19 51 32
157 21 177 -12 23 -61 27 -78 8z"/>
<path d="M2424 3305 c-18 -27 -18 -25 40 -113 46 -69 75 -85 106 -57 29 27 25
44 -31 123 -56 80 -85 92 -115 47z"/>
<path d="M2785 3155 c-5 -2 -34 -11 -64 -20 -30 -9 -79 -32 -108 -51 -49 -31
-54 -38 -51 -67 5 -52 40 -57 111 -14 192 116 432 47 530 -152 29 -60 32 -73
32 -161 -1 -83 -4 -102 -28 -150 -15 -30 -35 -66 -45 -79 l-19 -23 -43 31
c-56 41 -156 71 -234 71 l-62 0 -27 63 c-75 173 -251 287 -440 287 -235 0
-417 -144 -477 -376 -9 -38 -14 -42 -48 -48 -107 -17 -229 -115 -280 -224 -24
-51 -27 -69 -27 -167 0 -101 2 -115 28 -168 40 -80 112 -151 194 -190 l68 -32
565 -3 c543 -3 567 -2 631 18 71 21 153 76 200 133 106 129 128 314 56 460
l-35 70 39 55 c190 271 55 643 -265 728 -45 12 -174 18 -201 9z m-293 -397
c105 -49 179 -136 213 -250 9 -32 22 -61 28 -65 7 -4 59 -8 117 -8 94 0 110
-3 155 -27 112 -59 176 -156 183 -278 3 -61 0 -86 -18 -134 -28 -72 -95 -147
-165 -184 l-50 -27 -575 0 c-569 0 -575 0 -615 21 -150 81 -209 268 -129 413
48 90 133 145 241 158 61 7 67 14 77 87 18 137 118 255 265 312 60 23 204 13
273 -18z"/>
<path d="M3380 3102 c-72 -47 -86 -67 -75 -102 13 -41 51 -36 125 15 73 50 88
72 71 103 -19 37 -48 33 -121 -16z"/>
<path d="M3401 2611 c-14 -26 -6 -58 17 -69 9 -5 49 -14 89 -21 90 -16 116 -6
111 42 -3 27 -9 34 -43 45 -22 7 -68 16 -101 19 -56 5 -63 4 -73 -16z"/>
</g>
</svg>
