<?xml version="1.0" standalone="no"?>
<!DOCTYPE svg PUBLIC "-//W3C//DTD SVG 20010904//EN"
 "http://www.w3.org/TR/2001/REC-SVG-20010904/DTD/svg10.dtd">
<svg version="1.0" xmlns="http://www.w3.org/2000/svg"
 width="512.000000pt" height="512.000000pt" viewBox="0 0 512.000000 512.000000"
 preserveAspectRatio="xMidYMid meet">

<g transform="translate(0.000000,512.000000) scale(0.100000,-0.100000)"
fill="#fff" stroke="none">
<path d="M1225 4665 c-272 -49 -503 -248 -590 -506 l-25 -74 -62 -3 c-220 -11
-432 -192 -477 -410 -58 -277 110 -545 386 -617 85 -22 1543 -22 1660 0 224
42 412 206 489 427 34 98 43 262 20 362 -61 257 -279 446 -536 463 -75 5 -75
6 -100 45 -35 56 -165 176 -233 217 -158 93 -355 129 -532 96z m260 -170 c146
-31 300 -136 376 -258 60 -96 61 -97 160 -97 210 0 373 -115 431 -303 27 -90
22 -232 -12 -320 -48 -126 -159 -233 -290 -279 l-65 -23 -800 0 -800 0 -48 24
c-70 35 -139 101 -172 168 -27 52 -30 68 -30 153 0 87 3 100 32 155 44 85 110
143 203 180 34 13 71 17 148 16 117 -1 136 9 147 76 22 136 80 250 179 348
145 144 341 202 541 160z"/>
<path d="M3762 2940 c-211 -55 -393 -215 -477 -416 -16 -38 -30 -71 -31 -72
-1 -2 -33 22 -69 53 -132 112 -299 199 -462 242 -145 37 -376 44 -522 13 -230
-47 -410 -142 -579 -304 -47 -45 -104 -109 -129 -143 l-44 -61 -84 39 c-145
68 -216 83 -400 83 -132 -1 -174 -5 -238 -22 -451 -123 -751 -537 -724 -996
17 -290 168 -564 403 -732 84 -60 230 -127 339 -156 l90 -23 1700 0 1700 0 88
28 c159 49 272 120 377 234 72 79 141 211 165 317 29 127 16 336 -30 465 l-14
40 49 36 c167 123 260 322 246 530 -10 155 -60 269 -162 371 -92 93 -256 163
-380 164 -25 0 -37 8 -59 40 -83 119 -249 231 -401 270 -102 26 -252 26 -352
0z m311 -165 c132 -34 277 -144 338 -255 31 -57 60 -72 125 -64 58 7 150 -13
215 -46 61 -32 127 -103 161 -176 83 -178 20 -419 -142 -534 l-26 -19 -48 65
c-130 175 -350 291 -577 302 -61 3 -134 0 -173 -7 -98 -17 -224 -66 -301 -117
-38 -24 -69 -43 -71 -42 -1 2 -16 45 -33 95 -33 100 -77 194 -121 259 l-28 40
19 84 c26 111 70 191 149 271 69 70 152 119 243 144 69 18 199 19 270 0z
m-1373 -198 c112 -34 188 -68 274 -124 86 -55 212 -176 272 -259 91 -127 162
-315 180 -471 5 -48 13 -69 32 -88 44 -44 72 -35 172 59 138 129 273 186 445
186 105 0 190 -21 287 -71 144 -75 261 -218 313 -381 82 -258 29 -495 -146
-652 -69 -62 -134 -99 -234 -134 l-80 -27 -1685 0 c-1879 0 -1734 -5 -1895 69
-381 176 -560 589 -428 987 81 246 295 446 553 516 91 25 310 25 400 0 74 -20
174 -65 241 -108 44 -28 80 -36 113 -23 9 3 42 45 72 93 152 232 372 384 645
446 46 10 110 14 224 11 137 -3 172 -7 245 -29z"/>
</g>
</svg>
