<?xml version="1.0" standalone="no"?>
<!DOCTYPE svg PUBLIC "-//W3C//DTD SVG 20010904//EN"
 "http://www.w3.org/TR/2001/REC-SVG-20010904/DTD/svg10.dtd">
<svg version="1.0" xmlns="http://www.w3.org/2000/svg"
 width="512.000000pt" height="512.000000pt" viewBox="0 0 512.000000 512.000000"
 preserveAspectRatio="xMidYMid meet">

<g transform="translate(0.000000,512.000000) scale(0.100000,-0.100000)"
fill="#fff" stroke="none">
<path d="M2050 4309 c-216 -24 -424 -124 -581 -279 -153 -152 -247 -336 -280
-548 l-12 -80 -58 -11 c-235 -47 -429 -284 -429 -526 0 -68 28 -177 65 -251
67 -137 225 -255 379 -283 41 -8 482 -11 1430 -11 1138 0 1382 3 1437 14 184
39 339 177 399 356 103 302 -90 640 -400 701 l-57 11 -17 79 c-74 345 -407
582 -757 538 -44 -5 -110 -21 -147 -35 -37 -14 -74 -28 -83 -30 -10 -4 -30 12
-58 45 -59 70 -189 166 -296 218 -160 77 -361 112 -535 92z m319 -160 c166
-42 337 -153 446 -288 32 -39 68 -74 80 -77 16 -4 44 6 87 29 91 51 167 70
273 70 107 -1 190 -25 284 -80 147 -88 261 -275 261 -430 0 -86 26 -108 137
-116 133 -10 256 -99 316 -225 30 -62 32 -75 32 -172 0 -99 -2 -110 -33 -172
-53 -107 -158 -191 -274 -218 -59 -13 -2777 -13 -2836 0 -116 27 -221 111
-274 218 -31 62 -33 73 -33 172 0 97 2 110 32 172 59 126 184 215 316 225 113
9 137 30 137 124 0 170 87 377 220 522 210 228 527 323 829 246z"/>
<path d="M1255 1962 c-59 -34 -105 -68 -112 -82 -15 -29 -18 -217 -4 -253 9
-24 179 -131 227 -143 17 -4 50 9 116 47 141 81 138 76 138 218 0 110 -2 122
-22 145 -29 32 -196 126 -223 126 -11 0 -65 -26 -120 -58z m175 -123 l50 -31
0 -58 0 -58 -52 -29 -52 -30 -53 31 -53 30 0 57 0 57 53 31 c28 17 53 31 54
31 2 0 25 -14 53 -31z"/>
<path d="M2050 1965 c-130 -75 -130 -74 -130 -205 0 -60 4 -120 9 -133 12 -32
194 -140 236 -141 35 0 219 105 235 134 17 31 13 242 -5 267 -19 27 -203 133
-231 133 -10 0 -62 -25 -114 -55z m218 -212 l3 -61 -52 -29 -53 -30 -53 31
-53 30 0 57 0 57 53 31 52 30 50 -28 50 -28 3 -60z"/>
<path d="M2845 1969 c-135 -76 -135 -76 -135 -218 0 -99 3 -122 18 -139 28
-34 194 -125 227 -125 39 0 216 102 232 134 19 36 17 239 -2 266 -19 27 -203
133 -231 133 -10 0 -59 -23 -109 -51z m210 -218 l0 -61 -50 -29 -51 -29 -52
31 -52 32 0 57 0 58 52 29 53 30 50 -28 50 -28 0 -62z"/>
<path d="M3635 1969 c-135 -76 -135 -76 -135 -218 0 -99 3 -122 18 -139 9 -12
61 -46 115 -77 73 -42 105 -55 123 -51 48 12 215 119 225 143 14 36 11 224 -4
253 -14 27 -200 140 -232 140 -11 0 -60 -23 -110 -51z m161 -130 l54 -30 0
-57 0 -57 -52 -32 -53 -32 -50 29 -50 29 -3 59 -3 60 48 30 c26 17 50 31 52
31 2 1 28 -13 57 -30z"/>
<path d="M1650 1284 c-52 -31 -101 -63 -107 -72 -9 -11 -13 -56 -13 -142 0
-108 3 -129 18 -143 36 -32 198 -120 222 -120 26 0 178 81 218 116 21 19 22
28 22 152 0 113 -2 134 -17 147 -36 32 -200 118 -224 118 -13 0 -67 -25 -119
-56z m172 -121 l49 -27 -3 -64 -3 -63 -47 -27 -46 -26 -49 26 -48 27 -3 63 -2
63 47 27 c27 15 50 27 52 27 2 1 25 -11 53 -26z"/>
<path d="M2440 1285 c-52 -30 -101 -62 -107 -72 -9 -11 -13 -58 -13 -143 0
-108 3 -129 18 -142 38 -34 198 -121 222 -121 26 0 178 81 218 116 21 19 22
29 22 144 0 69 -4 132 -10 142 -13 25 -202 131 -232 131 -12 0 -66 -25 -118
-55z m171 -122 l50 -28 -3 -63 -3 -63 -47 -27 -48 -27 -47 27 -48 27 -3 63 -3
63 48 27 c26 15 50 28 52 28 1 0 25 -12 52 -27z"/>
<path d="M3234 1287 c-135 -77 -124 -59 -124 -213 l0 -133 33 -24 c63 -47 182
-110 207 -110 24 0 184 87 223 121 14 13 17 34 17 144 0 111 -2 130 -18 146
-31 31 -198 122 -223 122 -13 0 -65 -24 -115 -53z m167 -124 l50 -28 -3 -63
-3 -63 -48 -27 -49 -26 -46 26 -47 27 -3 63 -3 63 48 27 c26 15 50 28 52 28 1
0 25 -12 52 -27z"/>
</g>
</svg>
