<?xml version="1.0" standalone="no"?>
<!DOCTYPE svg PUBLIC "-//W3C//DTD SVG 20010904//EN"
 "http://www.w3.org/TR/2001/REC-SVG-20010904/DTD/svg10.dtd">
<svg version="1.0" xmlns="http://www.w3.org/2000/svg"
 width="512.000000pt" height="512.000000pt" viewBox="0 0 512.000000 512.000000"
 preserveAspectRatio="xMidYMid meet">

<g transform="translate(0.000000,512.000000) scale(0.100000,-0.100000)"
fill="#fff" stroke="none">
<path d="M2208 4434 c-668 -138 -1202 -613 -1417 -1259 -161 -483 -122 -994
111 -1455 37 -74 68 -136 68 -137 0 -2 -10 -3 -22 -3 -37 0 -120 -45 -162 -86
-63 -63 -91 -134 -91 -229 0 -67 4 -89 28 -137 34 -70 101 -131 173 -158 51
-19 77 -20 391 -20 l336 0 71 -40 c150 -82 380 -161 571 -196 121 -22 418 -30
542 -14 522 64 981 327 1293 741 102 137 202 319 255 466 19 52 19 53 -2 80
-34 46 -63 42 -161 -25 -163 -112 -364 -198 -557 -238 -126 -27 -443 -27 -564
-1 -377 81 -678 269 -896 558 -472 627 -378 1500 218 2014 66 58 77 72 77 100
0 71 -62 81 -262 39z m-48 -160 c0 -3 -23 -31 -51 -62 -116 -130 -242 -354
-303 -537 -111 -340 -110 -683 4 -1026 182 -548 635 -945 1220 -1070 155 -33
457 -34 617 -1 134 27 286 78 396 133 43 22 81 38 83 36 7 -6 -107 -181 -170
-262 -81 -103 -242 -256 -356 -338 -117 -83 -320 -185 -460 -231 -175 -58
-285 -77 -482 -83 -246 -8 -421 16 -623 85 l-80 27 210 5 c210 5 210 5 264 35
171 95 223 308 113 468 -35 49 -106 101 -163 119 -34 10 -38 15 -44 54 -18
124 -143 283 -267 343 -82 39 -135 50 -229 51 -127 0 -244 -46 -334 -131 -51
-48 -52 -48 -91 -38 -54 16 -162 5 -217 -21 -26 -12 -67 -40 -93 -63 -53 -46
-48 -50 -101 63 -263 558 -215 1212 125 1721 217 323 514 553 887 685 119 43
145 49 145 38z m-157 -2429 c112 -56 188 -168 203 -302 8 -65 30 -93 74 -93
36 0 96 -24 123 -48 52 -46 71 -139 43 -205 -16 -39 -61 -82 -99 -96 -39 -15
-1365 -15 -1404 0 -40 15 -73 48 -94 94 -24 53 -24 99 2 153 31 62 82 93 166
99 90 7 110 20 119 80 18 127 109 203 225 190 26 -3 62 -13 78 -22 44 -22 75
-10 116 45 71 97 172 142 305 137 69 -3 96 -9 143 -32z"/>
<path d="M3057 4419 c-10 -6 -55 -86 -102 -179 -74 -148 -88 -169 -112 -174
-15 -3 -95 -15 -178 -26 -169 -24 -198 -37 -203 -90 -3 -31 5 -42 135 -166
l138 -132 -32 -187 c-35 -206 -34 -226 19 -244 26 -9 46 -2 201 79 l172 88
160 -84 c88 -47 172 -85 188 -86 35 -1 67 28 67 61 0 14 -13 103 -29 196 l-30
170 140 141 c95 96 139 148 139 163 0 22 -40 71 -59 71 -15 0 -354 50 -357 53
-1 1 -39 76 -84 167 -45 90 -90 170 -99 177 -20 15 -50 16 -74 2z m164 -464
c8 -8 62 -21 124 -30 179 -25 173 -12 62 -123 -112 -112 -110 -104 -77 -277
10 -55 17 -101 15 -103 -2 -2 -57 24 -123 57 -65 34 -125 61 -131 61 -7 0 -64
-28 -127 -61 -63 -34 -117 -59 -120 -56 -3 2 5 60 16 128 12 68 19 133 16 145
-3 12 -49 62 -102 110 -109 101 -111 94 36 113 161 21 152 14 222 159 l61 127
57 -118 c31 -65 63 -124 71 -132z"/>
<path d="M3937 3129 c-9 -6 -43 -61 -73 -122 -31 -62 -57 -113 -58 -114 -2 -2
-52 -10 -112 -19 -60 -9 -121 -20 -135 -26 -30 -11 -51 -49 -42 -75 3 -10 46
-59 96 -110 l90 -91 -23 -126 c-20 -117 -20 -129 -6 -151 30 -46 57 -43 184
22 l117 60 110 -58 c61 -32 119 -59 131 -59 27 0 64 40 64 71 0 13 -9 73 -20
134 l-20 110 95 90 c102 96 113 120 78 164 -14 17 -39 25 -113 36 -52 8 -110
17 -128 21 -30 5 -37 14 -87 114 -66 131 -97 158 -148 129z m63 -279 c35 -74
56 -90 140 -102 l73 -11 -58 -54 -58 -54 7 -69 c3 -37 9 -76 12 -85 5 -12 -14
-6 -69 21 l-76 38 -72 -38 -72 -38 6 44 c4 23 10 60 13 80 6 35 3 41 -50 96
l-56 59 75 12 c82 14 92 22 130 109 10 23 21 42 25 42 4 0 17 -22 30 -50z"/>
</g>
</svg>
