<?xml version="1.0" standalone="no"?>
<!DOCTYPE svg PUBLIC "-//W3C//DTD SVG 20010904//EN"
 "http://www.w3.org/TR/2001/REC-SVG-20010904/DTD/svg10.dtd">
<svg version="1.0" xmlns="http://www.w3.org/2000/svg"
 width="512.000000pt" height="512.000000pt" viewBox="0 0 512.000000 512.000000"
 preserveAspectRatio="xMidYMid meet">

<g transform="translate(0.000000,512.000000) scale(0.100000,-0.100000)"
fill="#fff" stroke="none">
<path d="M2220 4889 c-466 -58 -853 -373 -1006 -819 l-32 -94 -80 -17 c-151
-33 -269 -92 -378 -193 -236 -215 -320 -540 -218 -844 69 -210 248 -398 456
-481 154 -62 125 -61 1517 -61 829 0 1296 4 1351 11 365 45 673 305 785 659
156 499 -126 1030 -630 1186 -68 21 -104 39 -148 74 -120 97 -281 156 -452
167 l-100 6 -83 77 c-174 164 -374 267 -604 314 -97 20 -281 28 -378 15z m356
-153 c221 -47 420 -159 577 -324 37 -40 73 -73 80 -73 6 -1 48 -1 92 0 158 5
336 -57 444 -155 43 -39 66 -51 139 -71 241 -67 424 -215 527 -428 64 -132 79
-197 79 -350 1 -155 -15 -228 -79 -360 -100 -208 -284 -360 -520 -427 l-80
-23 -1340 0 c-1270 0 -1343 1 -1405 18 -278 79 -471 317 -487 602 -10 180 52
347 180 482 114 120 249 186 410 203 44 4 85 14 93 21 7 8 25 54 39 103 57
195 131 329 256 461 180 189 392 298 652 335 82 12 255 4 343 -14z"/>
<path d="M1519 2120 c-22 -13 -124 -171 -187 -290 -67 -127 -97 -225 -88 -293
39 -293 423 -378 573 -128 47 78 59 148 39 228 -25 101 -188 406 -253 471 -23
23 -57 28 -84 12z m84 -267 c121 -207 144 -292 98 -366 -75 -122 -255 -106
-306 28 -20 52 -16 88 21 172 26 57 131 243 138 243 2 0 25 -35 49 -77z"/>
<path d="M2518 2111 c-52 -41 -224 -345 -255 -450 -57 -199 90 -395 297 -395
207 0 354 196 297 395 -21 70 -101 227 -179 346 -81 126 -109 144 -160 104z
m94 -264 c78 -136 118 -228 118 -270 0 -79 -52 -146 -130 -167 -75 -20 -166
25 -196 97 -23 53 -17 102 22 183 41 87 127 240 134 240 3 0 26 -37 52 -83z"/>
<path d="M3517 2108 c-63 -64 -226 -365 -252 -466 -20 -78 -14 -125 26 -210
133 -276 549 -199 585 109 11 95 -56 256 -198 477 -33 51 -69 97 -79 102 -29
16 -58 12 -82 -12z m128 -308 c29 -52 63 -125 76 -161 21 -60 22 -70 10 -110
-43 -143 -234 -169 -312 -42 -46 74 -23 159 98 367 54 91 44 96 128 -54z"/>
<path d="M2003 1075 c-49 -34 -227 -344 -258 -449 -35 -118 -3 -241 85 -320
65 -58 121 -80 210 -80 62 -1 85 4 132 27 139 68 209 226 163 368 -36 111
-187 381 -246 442 -31 30 -55 34 -86 12z m86 -264 c56 -95 110 -208 117 -248
15 -79 -26 -151 -104 -185 -59 -27 -120 -18 -168 24 -76 67 -83 133 -28 248
49 105 127 239 135 234 4 -2 25 -35 48 -73z"/>
<path d="M3031 1063 c-59 -61 -210 -331 -246 -442 -47 -146 28 -308 174 -374
64 -29 178 -29 242 0 145 65 219 224 176 374 -21 70 -101 227 -179 346 -84
131 -115 148 -167 96z m170 -387 c70 -141 66 -203 -15 -274 -116 -102 -301 9
-271 164 7 37 90 206 139 283 l28 43 35 -58 c20 -33 58 -104 84 -158z"/>
</g>
</svg>
