<?xml version="1.0" standalone="no"?>
<!DOCTYPE svg PUBLIC "-//W3C//DTD SVG 20010904//EN"
 "http://www.w3.org/TR/2001/REC-SVG-20010904/DTD/svg10.dtd">
<svg version="1.0" xmlns="http://www.w3.org/2000/svg"
 width="512.000000pt" height="512.000000pt" viewBox="0 0 512.000000 512.000000"
 preserveAspectRatio="xMidYMid meet">

<g transform="translate(0.000000,512.000000) scale(0.100000,-0.100000)"
fill="#fff" stroke="none">
<path d="M2485 5111 c-92 -24 -173 -90 -215 -176 -25 -50 -25 -51 -25 -345 0
-289 0 -296 24 -348 49 -109 170 -186 291 -186 121 0 242 77 291 186 24 52 24
59 24 348 l0 295 -34 63 c-57 105 -144 160 -260 167 -36 2 -79 1 -96 -4z m120
-217 c59 -28 65 -55 65 -303 0 -238 -6 -273 -51 -305 -13 -9 -39 -16 -59 -16
-20 0 -46 7 -59 16 -45 32 -51 67 -51 305 0 247 6 275 63 303 40 20 51 20 92
0z"/>
<path d="M891 4455 c-133 -37 -214 -134 -237 -281 -8 -54 18 -154 55 -207 16
-23 108 -120 204 -214 206 -204 243 -227 367 -227 90 0 147 22 214 84 102 94
131 239 73 365 -23 50 -61 93 -225 256 -170 170 -204 199 -247 213 -73 24
-142 28 -204 11z m137 -219 c15 -8 100 -88 190 -179 l162 -164 0 -48 c0 -38
-5 -52 -29 -76 -24 -24 -38 -29 -76 -29 l-48 0 -164 163 c-91 89 -171 174
-179 189 -24 46 -18 86 20 124 38 38 78 44 124 20z"/>
<path d="M4062 4455 c-78 -22 -118 -54 -309 -248 -204 -206 -227 -243 -228
-367 0 -93 32 -167 101 -230 67 -62 124 -84 214 -84 125 0 160 22 377 237 216
213 247 260 247 376 1 99 -26 164 -93 232 -84 83 -199 115 -309 84z m154 -239
c38 -38 44 -78 20 -124 -8 -15 -88 -100 -179 -189 l-164 -163 -48 0 c-38 0
-52 5 -76 29 -24 24 -29 38 -29 76 l0 47 148 150 c81 83 165 164 186 179 55
41 98 39 142 -5z"/>
<path d="M2455 3944 c-649 -65 -1140 -512 -1261 -1149 -23 -121 -23 -349 0
-470 56 -293 186 -543 387 -744 197 -197 441 -326 724 -383 140 -28 371 -28
511 0 578 116 1000 545 1110 1127 25 129 23 358 -4 491 -113 565 -542 996
-1094 1103 -102 20 -296 33 -373 25z m307 -229 c155 -27 329 -98 463 -188 78
-53 214 -185 276 -267 63 -84 133 -218 170 -328 79 -231 80 -508 3 -737 -57
-172 -142 -312 -268 -443 -101 -106 -186 -169 -306 -231 -287 -147 -614 -173
-912 -72 -186 63 -335 158 -474 303 -126 131 -211 271 -268 443 -75 225 -75
504 0 730 35 105 112 254 173 335 62 82 198 214 276 267 130 88 307 161 457
188 100 18 307 18 410 0z"/>
<path d="M245 2871 c-91 -23 -173 -90 -215 -176 -34 -69 -35 -198 -2 -265 34
-71 75 -113 144 -151 l63 -34 295 0 c289 0 296 0 348 24 109 49 186 170 186
291 0 121 -77 242 -186 291 -51 23 -62 24 -328 26 -151 1 -288 -2 -305 -6z
m539 -215 c43 -18 66 -51 66 -96 0 -45 -23 -78 -66 -96 -51 -21 -463 -20 -509
2 -31 14 -65 64 -65 94 0 29 34 79 63 94 44 22 460 23 511 2z"/>
<path d="M4285 2866 c-65 -21 -99 -42 -142 -89 -52 -56 -68 -87 -83 -159 -29
-143 58 -301 196 -354 44 -17 78 -19 339 -19 l290 0 63 34 c70 38 101 70 140
145 22 43 26 64 26 136 1 78 -2 90 -33 148 -37 69 -79 109 -151 144 -43 22
-57 23 -325 25 -208 2 -290 -1 -320 -11z m560 -212 c31 -14 65 -64 65 -94 0
-30 -34 -80 -65 -94 -46 -22 -458 -23 -509 -2 -43 18 -66 51 -66 96 0 44 23
78 64 96 48 21 466 20 511 -2z"/>
<path d="M1207 1590 c-79 -20 -126 -56 -310 -239 -223 -220 -241 -249 -241
-376 0 -91 20 -146 75 -209 67 -77 186 -125 278 -111 103 15 144 44 347 248
170 171 194 198 213 250 28 75 28 168 1 241 -26 68 -99 148 -162 176 -54 24
-147 33 -201 20z m144 -239 c24 -24 29 -38 29 -76 l0 -48 -162 -164 c-90 -91
-175 -171 -190 -179 -46 -24 -86 -18 -124 20 -38 38 -44 78 -20 124 8 15 88
100 179 190 l164 162 48 0 c38 0 52 -5 76 -29z"/>
<path d="M3760 1587 c-91 -26 -173 -97 -213 -186 -32 -70 -29 -178 6 -255 38
-83 370 -419 455 -462 74 -37 191 -40 263 -8 94 43 158 121 185 226 19 73 13
130 -22 208 -36 80 -374 417 -455 454 -67 31 -157 41 -219 23z m297 -369 c91
-90 171 -175 179 -190 24 -46 18 -86 -20 -124 -44 -44 -87 -46 -142 -5 -21 15
-105 96 -186 179 l-148 150 0 47 c0 38 5 52 29 76 24 24 38 29 76 29 l48 0
164 -162z"/>
<path d="M2484 1056 c-64 -16 -111 -44 -161 -99 -74 -80 -78 -103 -78 -432 0
-281 1 -291 23 -335 35 -72 75 -114 144 -151 58 -31 70 -34 148 -33 72 0 93 4
136 26 75 39 107 70 145 140 l34 63 0 290 c0 261 -2 295 -19 339 -36 95 -131
174 -234 195 -63 13 -72 13 -138 -3z m135 -222 c45 -32 51 -67 51 -305 0 -248
-6 -275 -65 -303 -41 -20 -49 -20 -90 0 -59 28 -65 55 -65 303 0 238 6 273 51
305 13 9 39 16 59 16 20 0 46 -7 59 -16z"/>
</g>
</svg>
