<?xml version="1.0" encoding="UTF-8"?><svg id="Layer_1" xmlns="http://www.w3.org/2000/svg" viewBox="0 0 937.1 678.39"><defs><style>.cls-1{fill:#fff;stroke-width:0px;}</style></defs><path class="cls-1" d="M160.2,200.72v5.95h27.86v4.69h-27.86v63.07h-5.07v-63.07h-11.91v-4.69h11.91v-5.95c0-15.07,8.87-23.56,22.54-23.56,4.94,0,9.75,1.27,14.44,3.8l-2.15,3.93c-3.67-2.03-7.85-3.04-12.28-3.04-11.02,0-17.48,6.84-17.48,18.87Z"/><path class="cls-1" d="M205.41,268.6c-4.81-5.07-7.22-11.78-7.22-20.14v-41.79h5.07v41.67c0,14.18,8.49,23.05,21.78,23.05s21.78-8.61,21.78-23.18v-41.54h5.07v41.79c0,16.85-10.13,27.61-26.85,27.61-8.23,0-14.69-2.53-19.63-7.47Z"/><path class="cls-1" d="M313.18,270c-5.19,3.93-11.27,5.95-18.24,5.95-13.04,0-19.63-8.74-19.63-22.8v-41.8h-12.03v-4.69h12.03v-23.94h5.07v23.94h30.39v4.69h-30.39v41.42c0,12.03,5.19,18.49,14.94,18.49,5.83,0,11.02-1.65,15.45-5.07l2.41,3.8Z"/><path class="cls-1" d="M330.53,268.6c-4.81-5.07-7.22-11.78-7.22-20.14v-41.79h5.07v41.67c0,14.18,8.49,23.05,21.78,23.05s21.78-8.61,21.78-23.18v-41.54h5.07v41.79c0,16.85-10.13,27.61-26.85,27.61-8.23,0-14.69-2.53-19.63-7.47Z"/><path class="cls-1" d="M397.64,274.43v-67.76h4.69v11.4c3.67-8.74,10.26-13.17,19.76-13.17,2.91,0,5.83.38,8.61,1.27l-.76,4.56c-2.28-.76-4.69-1.14-7.35-1.14-6.71,0-11.78,2.41-15.07,7.22-3.16,4.81-4.81,10.64-4.81,17.6v40.02h-5.07Z"/><path class="cls-1" d="M496.55,242.26h-58.89c.89,17.73,11.9,29,29.76,29,9.25,0,19.25-3.29,25.33-8.36l2.66,3.8c-6.21,5.19-16.97,9.25-28.12,9.25-24.44,0-34.7-17.86-34.7-35.59,0-10.26,3.04-18.62,9.12-25.33,6.2-6.71,14.31-10,24.32-10,8.87,0,16.21,2.79,22.04,8.49,5.95,5.57,8.87,13.17,8.87,22.8,0,.89-.13,2.91-.38,5.95ZM446.27,217.31c-5.19,5.07-7.98,11.78-8.48,20.26h54.08c0-8.49-2.41-15.32-7.09-20.26-4.69-5.07-11.02-7.6-18.74-7.6s-14.56,2.53-19.76,7.6Z"/><path class="cls-1" d="M153.11,301.1c2.91,0,5.19,2.28,5.19,5.32s-2.28,5.19-5.19,5.19-5.32-2.28-5.32-5.19,2.41-5.32,5.32-5.32ZM155.52,390.51h-5.07v-67.76h5.07v67.76Z"/><path class="cls-1" d="M177.8,390.51v-67.76h4.81v13.55c3.93-10.26,12.16-15.32,24.82-15.32,7.72,0,14.18,2.53,19.25,7.6,5.19,4.94,7.72,12.03,7.72,21.15v40.78h-5.07v-40.78c0-14.56-8.23-24.06-21.91-24.06-9.88,0-24.57,5.57-24.57,26.6v38.25h-5.07Z"/><path class="cls-1" d="M255.05,390.51v-67.76h4.81v13.55c3.93-10.26,12.16-15.32,24.82-15.32,7.72,0,14.18,2.53,19.25,7.6,5.19,4.94,7.72,12.03,7.72,21.15v40.78h-5.07v-40.78c0-14.56-8.23-24.06-21.91-24.06-9.88,0-24.57,5.57-24.57,26.6v38.25h-5.07Z"/><path class="cls-1" d="M337.49,331.37c6.71-6.84,15.07-10.26,25.08-10.26s18.36,3.42,25.08,10.26c6.71,6.84,10,15.2,10,25.2s-3.29,18.49-10,25.33c-6.71,6.84-15.07,10.26-25.08,10.26s-18.37-3.42-25.08-10.26c-6.71-6.84-10.01-15.32-10.01-25.33s3.29-18.36,10.01-25.2ZM362.57,387.47c8.74,0,15.83-2.91,21.53-8.86,5.7-5.95,8.49-13.3,8.49-22.04s-2.79-16.08-8.49-21.91c-5.7-5.95-12.79-8.87-21.53-8.87s-15.83,2.91-21.53,8.87c-5.7,5.83-8.48,13.17-8.48,21.91s2.79,16.08,8.48,22.04c5.7,5.95,12.79,8.86,21.53,8.86Z"/><path class="cls-1" d="M460.46,322.76h5.57l-29.89,67.63h-2.53l-29.89-67.63h5.44l25.71,58.89,25.58-58.89Z"/><path class="cls-1" d="M534.04,322.76h5.07v67.76h-5.07v-15.58c-5.45,10.64-15.96,17.22-28.5,17.22-9.5,0-17.48-3.42-23.94-10.26-6.33-6.97-9.5-15.45-9.5-25.58s3.17-18.37,9.5-25.08c6.33-6.71,14.31-10.13,23.94-10.13,12.66,0,23.05,6.33,28.5,16.84v-15.2ZM526.19,378.36c5.57-6.08,8.36-13.42,8.36-22.16s-2.79-15.58-8.36-21.53c-5.45-5.95-12.41-8.87-20.77-8.87s-14.94,2.91-20.26,8.74c-5.32,5.83-7.98,13.17-7.98,21.91s2.66,16.21,7.98,22.16c5.32,5.95,12.03,8.86,20.26,8.86s15.32-3.04,20.77-9.12Z"/><path class="cls-1" d="M601.28,386.08c-5.19,3.93-11.27,5.95-18.24,5.95-13.04,0-19.63-8.74-19.63-22.8v-41.8h-12.03v-4.69h12.03v-23.94h5.07v23.94h30.39v4.69h-30.39v41.42c0,12.03,5.19,18.49,14.94,18.49,5.83,0,11.02-1.65,15.45-5.07l2.41,3.8Z"/><path class="cls-1" d="M614.2,301.1c2.91,0,5.19,2.28,5.19,5.32s-2.28,5.19-5.19,5.19-5.32-2.28-5.32-5.19,2.41-5.32,5.32-5.32ZM616.6,390.51h-5.07v-67.76h5.07v67.76Z"/><path class="cls-1" d="M644.08,331.37c6.71-6.84,15.07-10.26,25.08-10.26s18.36,3.42,25.08,10.26c6.71,6.84,10,15.2,10,25.2s-3.29,18.49-10,25.33c-6.71,6.84-15.07,10.26-25.08,10.26s-18.37-3.42-25.08-10.26c-6.71-6.84-10.01-15.32-10.01-25.33s3.29-18.36,10.01-25.2ZM669.16,387.47c8.74,0,15.83-2.91,21.53-8.86,5.7-5.95,8.49-13.3,8.49-22.04s-2.79-16.08-8.49-21.91c-5.7-5.95-12.79-8.87-21.53-8.87s-15.83,2.91-21.53,8.87c-5.7,5.83-8.48,13.17-8.48,21.91s2.79,16.08,8.48,22.04c5.7,5.95,12.79,8.86,21.53,8.86Z"/><path class="cls-1" d="M720.95,390.51v-67.76h4.81v13.55c3.93-10.26,12.16-15.32,24.82-15.32,7.72,0,14.18,2.53,19.25,7.6,5.19,4.94,7.72,12.03,7.72,21.15v40.78h-5.07v-40.78c0-14.56-8.23-24.06-21.91-24.06-9.88,0-24.57,5.57-24.57,26.6v38.25h-5.07Z"/><path class="cls-1" d="M156.28,506.6h-5.07v-95.37h5.07v95.37Z"/><path class="cls-1" d="M234.92,438.84h5.07v67.76h-5.07v-15.58c-5.45,10.64-15.96,17.22-28.5,17.22-9.5,0-17.48-3.42-23.94-10.26-6.33-6.97-9.5-15.45-9.5-25.58s3.17-18.37,9.5-25.08c6.33-6.71,14.31-10.13,23.94-10.13,12.66,0,23.05,6.33,28.5,16.84v-15.2ZM227.07,494.44c5.57-6.08,8.36-13.42,8.36-22.16s-2.79-15.58-8.36-21.53c-5.45-5.95-12.41-8.87-20.77-8.87s-14.94,2.91-20.26,8.74c-5.32,5.83-7.98,13.17-7.98,21.91s2.66,16.21,7.98,22.16c5.32,5.95,12.03,8.86,20.26,8.86s15.32-3.04,20.77-9.12Z"/><path class="cls-1" d="M319.26,447.58c6.46,6.84,9.62,15.2,9.62,25.2s-3.16,18.49-9.62,25.33c-6.33,6.84-14.31,10.26-23.81,10.26-12.79,0-23.43-6.84-28.87-17.98v16.21h-5.07v-95.37h5.07v43.69c5.44-10.76,16.08-17.6,28.87-17.6,9.5,0,17.48,3.42,23.81,10.26ZM315.84,494.82c5.32-5.95,7.98-13.3,7.98-22.04s-2.66-15.96-7.98-21.91c-5.32-5.95-12.03-8.86-20.26-8.86s-15.32,2.91-20.9,8.86c-5.45,5.95-8.23,13.05-8.23,21.53s2.79,16.08,8.23,22.16c5.57,6.08,12.54,9.12,20.9,9.12s14.95-2.91,20.26-8.87Z"/><path class="cls-1" d="M339.14,493.43l4.31-2.41c4.05,8.23,10.38,12.41,19,12.41,10.26,0,17.48-6.71,17.48-14.82,0-5.95-3.67-9.37-10.13-12.41-1.65-.89-4.43-1.9-8.11-3.29-3.67-1.39-6.21-2.53-7.72-3.29-7.47-3.67-11.27-8.87-11.27-15.58,0-10,7.72-17.48,20.26-17.48,8.99,0,15.58,3.55,19.88,10.51l-3.67,2.53c-3.29-5.57-8.61-8.36-15.96-8.36-9.75,0-15.58,5.19-15.58,12.66,0,4.94,2.91,8.74,8.74,11.65,1.39.63,4.05,1.77,7.85,3.29,3.8,1.52,6.71,2.79,8.61,3.67,7.98,3.67,12.16,7.85,12.16,15.58,0,5.7-2.15,10.39-6.33,14.31-4.18,3.8-9.5,5.7-15.96,5.7-10,0-18.87-4.94-23.56-14.69Z"/></svg>